<svg width="12" height="14" viewBox="0 0 12 14" fill="none" xmlns="http://www.w3.org/2000/svg">
<path d="M10.9725 4.69239C10.8918 4.75433 9.46607 5.54855 9.46607 7.31456C9.46607 9.35724 11.2802 10.0799 11.3345 10.0978C11.3261 10.1418 11.0463 11.0875 10.378 12.051C9.78212 12.8989 9.15977 13.7454 8.21302 13.7454C7.26628 13.7454 7.02263 13.2017 5.92969 13.2017C4.83676 13.2017 4.48591 13.7633 3.61991 13.7633C2.75392 13.7633 2.14967 12.9787 1.45493 12.0152C0.650192 10.8837 0 9.126 0 7.45771C0 4.78186 1.75983 3.36272 3.49182 3.36272C4.41212 3.36272 5.17926 3.9601 5.75705 3.9601C6.33485 3.9601 7.16464 3.32693 8.21163 3.32693C8.60843 3.32693 10.0341 3.36272 10.9725 4.69239ZM7.71459 2.19409C8.14759 1.68618 8.45389 0.981423 8.45389 0.27667C8.45389 0.178941 8.44553 0.0798353 8.42743 0C7.72294 0.0261529 6.88479 0.46387 6.3794 1.04336C5.9826 1.48934 5.61226 2.19409 5.61226 2.90848C5.61226 3.01585 5.63036 3.12321 5.63871 3.15762C5.68326 3.16588 5.75566 3.17552 5.82806 3.17552C6.46015 3.17552 7.25514 2.75707 7.71459 2.19409Z" fill="white"/>
</svg>
