<svg width="24" height="24" viewBox="0 0 24 24" fill="none" xmlns="http://www.w3.org/2000/svg">
<path fill-rule="evenodd" clip-rule="evenodd" d="M18.9998 3C20.6521 3 21.9998 4.34772 21.9998 6V18C21.9998 19.6523 20.6521 21 18.9998 21H8.11016C7.07018 21 6.11624 20.4583 5.56719 19.5977L5.56133 19.5898V19.5889L1.81426 13.5938L1.70586 13.4072C1.20103 12.4639 1.23719 11.3211 1.81426 10.4062L5.56231 4.41016L5.56719 4.40234C6.11624 3.54172 7.07018 3 8.11016 3H18.9998ZM8.11016 5C7.77021 5 7.4437 5.17828 7.25274 5.47754L3.50762 11.4697L3.50567 11.4736C3.32691 11.7571 3.30427 12.1024 3.43828 12.4014L3.50567 12.5264L3.50762 12.5303L7.25274 18.5225L7.33086 18.6289C7.52583 18.8634 7.81278 19 8.11016 19H18.9998C19.5475 19 19.9998 18.5477 19.9998 18V6C19.9998 5.45228 19.5475 5 18.9998 5H8.11016ZM16.7068 9.70703L14.4139 12L16.7068 14.293L15.2928 15.707L12.9998 13.4141L10.7068 15.707L9.29278 14.293L11.5857 12L9.29278 9.70703L10.7068 8.29297L12.9998 10.5859L15.2928 8.29297L16.7068 9.70703Z" fill="#1C1308"/>
</svg>
