<svg width="24" height="24" viewBox="0 0 24 24" fill="none" xmlns="http://www.w3.org/2000/svg">
<path d="M12 2C16.4183 2 20 5.58172 20 10C20 14.0146 18.0732 17.6768 15.1279 19.2227L15.9482 21.6836L16.3877 23H7.6123L8.05176 21.6836L8.87109 19.2227C5.92626 17.6765 4 14.0143 4 10C4 5.58172 7.58172 2 12 2ZM13.2402 19.8838C12.8385 19.9594 12.4247 20 12 20C11.575 20 11.1608 19.9596 10.7588 19.8838L10.3867 21H13.6133L13.2402 19.8838ZM12 4C8.68629 4 6 6.68629 6 10C6 14.6939 8.90382 18 12 18C15.0962 18 18 14.6939 18 10C18 6.68629 15.3137 4 12 4ZM12 6C14.2091 6 16 7.79086 16 10H14C14 8.89543 13.1046 8 12 8V6Z" fill="#1C1308"/>
</svg>
