<svg width="24" height="24" viewBox="0 0 24 24" fill="none" xmlns="http://www.w3.org/2000/svg">
<path fill-rule="evenodd" clip-rule="evenodd" d="M22 22.0004H2V20.0004H22V22.0004ZM7 17.0004H9V11.0004H11V17.0004H13V11.0004H15V17.0004H17V11.0004H19V17.0004H22V19.0004H2V17.0004H5V11.0004H7V17.0004ZM11.3711 1.10391C11.7348 0.978601 12.1196 0.966646 12.4824 1.05703L12.6387 1.10293L20.6387 3.79434L20.6523 3.79824C21.4434 4.07732 21.9998 4.83316 22 5.69961V8.99746H2V5.69961C2.00016 4.84471 2.53618 4.07799 3.35449 3.79629L3.36133 3.79336L11.3711 1.10293V1.10391ZM4.00293 5.68789V5.68887H4.00195C4.00168 5.68926 4.00133 5.69064 4.00098 5.6918C4.00062 5.69296 4.00004 5.69587 4 5.69961V6.99746H20V5.69863C19.9996 5.69755 19.9986 5.69498 19.9971 5.69278C19.9931 5.68741 19.9885 5.68541 19.9873 5.68496L12.0039 2.99942L4.00293 5.68789Z" fill="#1C1308"/>
</svg>
