<svg width="24" height="24" viewBox="0 0 24 24" fill="none" xmlns="http://www.w3.org/2000/svg">
<path d="M10.0002 18C10.0002 19.1077 10.8925 20 12.0002 20C13.1078 19.9998 14.0002 19.1076 14.0002 18H16.0002C16.0002 20.2122 14.2124 21.9998 12.0002 22C9.78796 22 8.00024 20.2123 8.00024 18H10.0002ZM12.0002 2C15.8735 2.00018 19.0002 5.13891 19.0002 9C19.0002 11.8272 19.7059 13.925 20.3948 15.3027C20.74 15.9932 21.0819 16.5054 21.3313 16.8379C21.4558 17.0039 21.5578 17.1252 21.6243 17.2012C21.6573 17.2389 21.6822 17.266 21.6965 17.2812C21.702 17.2871 21.7059 17.2915 21.7083 17.2939L20.2922 18.7061H20.2913L20.2903 18.7041C20.289 18.7028 20.287 18.7009 20.2854 18.6992C20.2822 18.6959 20.2783 18.6913 20.2737 18.6865C20.2643 18.6769 20.2512 18.6641 20.2366 18.6484C20.2071 18.617 20.1669 18.573 20.1184 18.5176C20.0209 18.4061 19.8881 18.2456 19.7317 18.0371C19.4186 17.6197 19.0104 17.0066 18.6057 16.1973C17.7946 14.575 17.0002 12.1728 17.0002 9C17.0002 6.24131 14.7667 4.00018 12.0002 4C9.23361 4 7.00024 6.2412 7.00024 9C7.00024 12.1727 6.2059 14.575 5.39478 16.1973C4.99012 17.0066 4.58186 17.6197 4.2688 18.0371C4.11244 18.2456 3.97958 18.4061 3.88208 18.5176C3.83359 18.573 3.79342 18.617 3.76392 18.6484C3.74928 18.6641 3.73619 18.6768 3.72681 18.6865C3.7222 18.6913 3.71834 18.6959 3.71509 18.6992C3.71351 18.7008 3.71149 18.7028 3.71021 18.7041L3.70923 18.7061H3.70825L2.29224 17.2939C2.29461 17.2915 2.29854 17.287 2.30396 17.2812C2.31833 17.2659 2.34324 17.2389 2.37622 17.2012C2.44272 17.1252 2.54468 17.0039 2.66919 16.8379C2.91858 16.5053 3.26052 15.9931 3.60571 15.3027C4.29455 13.925 5.00024 11.8271 5.00024 9C5.00024 5.1388 8.12687 2 12.0002 2Z" fill="#1C1308"/>
</svg>
