<svg width="24" height="24" viewBox="0 0 24 24" fill="none" xmlns="http://www.w3.org/2000/svg">
<path d="M17 6H19C20.6569 6 22 7.34315 22 9V19C22 20.6569 20.6569 22 19 22H5C3.34315 22 2 20.6569 2 19V9C2 7.34315 3.34315 6 5 6H7V2H17V6ZM20 14.498C17.4362 15.4749 14.7623 16 12 16C9.23774 16 6.56381 15.4749 4 14.498V19C4 19.5523 4.44772 20 5 20H19C19.5523 20 20 19.5523 20 19V14.498ZM5 8C4.44772 8 4 8.44772 4 9V12.3438C6.57165 13.4247 9.24389 14 12 14C14.7561 14 17.4284 13.4247 20 12.3438V9C20 8.44772 19.5523 8 19 8H5ZM9 6H15V4H9V6Z" fill="#1C1308"/>
</svg>
