<svg width="24" height="24" viewBox="0 0 24 24" fill="none" xmlns="http://www.w3.org/2000/svg">
<path d="M14.46 3C15.1169 3 15.7514 3.33184 16.1211 3.89648L16.1221 3.89551L17.5254 6H19.9902C21.0924 6.00013 21.9902 6.89779 21.9902 8V19C21.9902 20.1022 21.0924 20.9999 19.9902 21H4C2.89772 21 2 20.1023 2 19V8C2 6.89772 2.89772 6 4 6H7V8H4V19H19.9902V8H16.4551L16.1582 7.55469L14.458 5.00488L14.4541 5H9V3H14.46ZM12 8C14.7623 8 17 10.2377 17 13C17 15.7623 14.7623 18 12 18C9.23772 18 7 15.7623 7 13C7 10.2377 9.23772 8 12 8ZM12 10C10.3423 10 9 11.3423 9 13C9 14.6577 10.3423 16 12 16C13.6577 16 15 14.6577 15 13C15 11.3423 13.6577 10 12 10Z" fill="#1C1308"/>
</svg>
