<svg width="24" height="24" viewBox="0 0 24 24" fill="none" xmlns="http://www.w3.org/2000/svg">
<path d="M12 2C17.5228 2 22 6.47715 22 12C22 17.5228 17.5228 22 12 22C6.47715 22 2 17.5228 2 12C2 6.47715 6.47715 2 12 2ZM12 4C7.58172 4 4 7.58172 4 12C4 16.4183 7.58172 20 12 20C16.4183 20 20 16.4183 20 12C20 7.58172 16.4183 4 12 4ZM17.6768 9.73633L12.46 14.5264L12.4512 14.5352L12.4424 14.543C12.3176 14.652 12.1295 14.7865 11.8838 14.876L11.8848 14.8789C11.8702 14.8847 11.8543 14.8873 11.8398 14.8926C11.8267 14.8969 11.8143 14.9042 11.8008 14.9082L11.7998 14.9062C11.5572 14.9874 11.3351 15 11.1934 15C10.9037 15 10.641 14.9219 10.4258 14.8145C10.2882 14.7457 10.0729 14.6222 9.8877 14.4092L7.27734 11.6816L8.72266 10.2988L11.2402 12.9307L16.3232 8.26367L17.6768 9.73633Z" fill="#1C1308"/>
</svg>
