<svg width="24" height="24" viewBox="0 0 24 24" fill="none" xmlns="http://www.w3.org/2000/svg">
<path d="M7.51082 7.11523C7.9985 5.78874 9.66531 5.39427 10.6993 6.30176L10.797 6.39355L18.6065 14.2031C19.6385 15.2352 19.2404 16.9706 17.8966 17.4844L17.8907 17.4863L5.40633 22.1641L5.40731 22.168C3.79307 22.7656 2.2331 21.1896 2.83309 19.5889L7.51082 7.11523ZM9.38582 7.81152L8.24813 10.8438L11.6973 14.293L10.2833 15.707L7.47664 12.9004L4.70613 20.291L17.1827 15.6162L17.1876 15.6133V15.6123L9.38582 7.81055V7.81152ZM22.6973 13.293L21.2833 14.707L19.2833 12.707L20.6973 11.293L22.6973 13.293ZM23.3419 8.93652L19.3419 10.4365L18.6388 8.56348L22.6388 7.06348L23.3419 8.93652ZM20.2696 3L21.2364 3.25391L20.6466 5.50391C20.4195 6.38987 19.6173 6.99979 18.71 7H16.7989L16.46 8.69629L14.4991 8.30371L14.8389 6.60352C15.0231 5.67342 15.8466 5.00022 16.7999 5H18.711L18.712 4.99609L19.3018 2.74609L20.2696 3ZM13.9903 5.5H11.9903V2H13.9903V5.5Z" fill="#1C1308"/>
</svg>
