<svg width="24" height="24" viewBox="0 0 24 24" fill="none" xmlns="http://www.w3.org/2000/svg">
<path d="M19 8C20.6523 8 22 9.34772 22 11V19C22 20.6523 20.6523 22 19 22H11C9.34772 22 8 20.6523 8 19V11C8 9.34772 9.34772 8 11 8H19ZM11 10C10.4523 10 10 10.4523 10 11V19C10 19.5477 10.4523 20 11 20H19C19.5477 20 20 19.5477 20 19V11C20 10.4523 19.5477 10 19 10H11ZM13 2C14.6523 2 16 3.34772 16 5V6H14V5C14 4.45228 13.5477 4 13 4H5C4.45228 4 4 4.45228 4 5V13C4 13.5477 4.45228 14 5 14H6V16H5C3.34772 16 2 14.6523 2 13V5C2 3.34772 3.34772 2 5 2H13Z" fill="#1C1308"/>
</svg>
