<svg width="24" height="24" viewBox="0 0 24 24" fill="none" xmlns="http://www.w3.org/2000/svg">
<path d="M22.7402 1.67303L20.5742 4.05487C21.9535 4.32404 23 5.54416 23 7.00018V17.0002C22.9999 18.6524 21.6522 20.0002 20 20.0002H6.0791L2.74023 23.673L1.25977 22.3273L3.42578 19.9435C2.04669 19.6743 1.00009 18.456 1 17.0002V7.00018C1 5.3479 2.34772 4.00018 4 4.00018H17.9209L21.2598 0.327332L22.7402 1.67303ZM3 17.0002C3.0001 17.5478 3.45234 18.0002 4 18.0002H5.19336L12.4658 10.0002H3V17.0002ZM7.89746 18.0002H20C20.5477 18.0002 20.9999 17.5478 21 17.0002V10.0002H15.1699L7.89746 18.0002ZM19 16.0002H13V14.0002H19V16.0002ZM4 6.00018C3.45228 6.00018 3 6.45247 3 7.00018V8.00018H14.2842L16.1025 6.00018H4ZM16.9883 8.00018H21V7.00018C21 6.45247 20.5477 6.00018 20 6.00018H18.8066L16.9883 8.00018Z" fill="#1C1308"/>
</svg>
