<svg width="24" height="24" viewBox="0 0 24 24" fill="none" xmlns="http://www.w3.org/2000/svg">
<path d="M12.0166 21.905C15.8506 21.905 18.6586 19.88 18.6586 16.559C18.6586 14.21 17.3086 12.266 14.4736 11.699C16.6336 11.078 17.9836 9.53901 17.9836 7.27101C17.9836 4.13901 15.3106 2.19501 12.0166 2.19501C8.72257 2.19501 6.02256 4.13901 6.02256 7.27101C6.02256 9.53901 7.39956 11.078 9.53257 11.699C6.80556 12.266 5.34756 14.21 5.34756 16.559C5.34756 19.88 8.18256 21.905 12.0166 21.905ZM12.0166 10.646C9.93756 10.646 8.34457 9.40401 8.34457 7.51401C8.34457 5.59701 9.93756 4.35501 12.0166 4.35501C14.0956 4.35501 15.6886 5.59701 15.6886 7.51401C15.6886 9.40401 14.0956 10.646 12.0166 10.646ZM12.0166 19.745C9.47857 19.745 7.77756 18.341 7.77756 16.289C7.77756 14.21 9.47857 12.806 12.0166 12.806C14.5546 12.806 16.2556 14.21 16.2556 16.289C16.2556 18.341 14.5546 19.745 12.0166 19.745Z" fill="black"/>
</svg>
