<svg width="24" height="24" viewBox="0 0 24 24" fill="none" xmlns="http://www.w3.org/2000/svg">
<path d="M12.5559 9.10698C11.0709 9.10698 9.45092 9.53898 8.42492 10.673L9.15392 4.75998H17.3349V2.59998H7.02092L5.75192 13.481L7.93892 13.778C8.69492 12.131 10.1259 11.105 12.0699 11.105C14.1219 11.105 15.9849 12.617 15.9849 15.452C15.9849 18.449 14.2839 19.745 12.0429 19.745C9.96392 19.745 8.23592 18.611 7.96592 16.532L5.58992 16.964C5.96792 19.772 8.39792 21.905 12.0699 21.905C15.8229 21.905 18.4959 19.502 18.4959 15.29C18.4959 11.483 15.8499 9.10698 12.5559 9.10698Z" fill="black"/>
</svg>
