<svg width="24" height="24" viewBox="0 0 24 24" fill="none" xmlns="http://www.w3.org/2000/svg">
<path d="M12 3C13.5947 3 15.1052 3.37404 16.4453 4.04004L15.5547 5.83105C14.485 5.29949 13.2789 5 12 5C7.58172 5 4 8.58172 4 13C4 15.3692 5.02879 17.4966 6.66699 18.9629L5.33301 20.4531C3.28889 18.6235 2 15.9617 2 13C2 7.47715 6.47715 3 12 3ZM20.96 8.55469C21.626 9.89483 22 11.4053 22 13C22 15.9617 20.7111 18.6235 18.667 20.4531L17.333 18.9629C18.9712 17.4966 20 15.3692 20 13C20 11.7211 19.7005 10.515 19.1689 9.44531L20.96 8.55469ZM20.707 5.70703L14.707 11.707L14.7012 11.7012C14.8907 12.0946 15 12.5341 15 13C15 14.6569 13.6569 16 12 16C10.3431 16 9 14.6569 9 13C9 11.3431 10.3431 10 12 10C12.4659 10 12.9054 10.1093 13.2988 10.2988L13.293 10.293L19.293 4.29297L20.707 5.70703ZM12 12C11.4477 12 11 12.4477 11 13C11 13.5523 11.4477 14 12 14C12.5523 14 13 13.5523 13 13C13 12.4477 12.5523 12 12 12Z" fill="#1C1308"/>
</svg>
