<svg width="24" height="24" viewBox="0 0 24 24" fill="none" xmlns="http://www.w3.org/2000/svg">
<path d="M16.707 2.70697L14.4141 4.99994H22V11.9999H13V18.9999H17C17.5523 18.9999 18 18.5522 18 17.9999V13.4999H20V17.9999C20 19.6568 18.6569 20.9999 17 20.9999H7C5.34315 20.9999 4 19.6568 4 17.9999V13.4999H6V17.9999C6 18.5522 6.44772 18.9999 7 18.9999H11V11.9999H2V4.99994H9.58594L7.29297 2.70697L8.70703 1.29291L12 4.58588L15.293 1.29291L16.707 2.70697ZM4 9.99994H11V6.99994H4V9.99994ZM13 9.99994H20V6.99994H13V9.99994Z" fill="#1C1308"/>
</svg>
