<svg width="24" height="24" viewBox="0 0 24 24" fill="none" xmlns="http://www.w3.org/2000/svg">
<path d="M7.10254 4.98602C8.4738 4.38109 10.0972 3.99969 12 3.99969C18.984 3.99971 22.215 9.11141 22.9619 11.7253L23.04 11.9997L22.9619 12.2741C22.5153 13.8372 21.1795 16.293 18.6846 18.0153L20.7471 20.3356L19.2529 21.6638L16.8965 19.0134C15.5253 19.6182 13.9025 19.9997 12 19.9997C5.01574 19.9997 1.78488 14.8879 1.03809 12.2741L0.959961 11.9997L1.03809 11.7253C1.4848 10.1621 2.82045 7.7063 5.31543 5.98407L3.25293 3.66376L4.74707 2.33563L7.10254 4.98602ZM6.65918 7.49579C4.62005 8.81454 3.48799 10.7199 3.04883 11.9997C3.78015 14.1312 6.43312 17.9997 12 17.9997C13.3199 17.9997 14.475 17.7799 15.4805 17.4196L14.5068 16.3249C13.7695 16.7529 12.9132 16.9997 12 16.9997C9.23858 16.9997 7 14.7611 7 11.9997C7.00007 10.8754 7.37108 9.83649 7.99707 9.00165L6.65918 7.49579ZM12 5.99969C10.68 5.99969 9.52413 6.21851 8.51855 6.5788L17.3398 16.5026C19.3786 15.1838 20.511 13.2794 20.9502 11.9997C20.2186 9.86807 17.5664 5.99971 12 5.99969ZM9.37305 10.5495C9.13507 10.9794 9.00005 11.4736 9 11.9997C9 13.6565 10.3431 14.9997 12 14.9997C12.4008 14.9997 12.7818 14.9194 13.1309 14.777L9.37305 10.5495ZM12 6.99969C14.7613 6.99971 16.9998 9.23842 17 11.9997H15C14.9998 10.343 13.6567 8.99971 12 8.99969V6.99969Z" fill="#1C1308"/>
</svg>
