<svg width="24" height="24" viewBox="0 0 24 24" fill="none" xmlns="http://www.w3.org/2000/svg">
<path d="M20 22H4V2H20V22ZM6 20H8V17.8574C8 16.6946 9.04789 16 10 16H14C14.9521 16 16 16.6946 16 17.8574V20H18V4H6V20ZM10 20H14V18H10V20ZM12 8C13.9335 8 15.5 9.56647 15.5 11.5C15.5 13.4335 13.9335 15 12 15C10.0665 15 8.5 13.4335 8.5 11.5C8.5 9.56647 10.0665 8 12 8ZM12 10C11.171 10 10.5 10.671 10.5 11.5C10.5 12.329 11.171 13 12 13C12.829 13 13.5 12.329 13.5 11.5C13.5 10.671 12.829 10 12 10ZM16 7H8V5H16V7Z" fill="#1C1308"/>
</svg>
