<svg width="24" height="24" viewBox="0 0 24 24" fill="none" xmlns="http://www.w3.org/2000/svg">
<path d="M4 6C4 4.9 4.9 4 6 4H18C19.1 4 20 4.9 20 6V18C20 19.1 19.1 20 18 20H6C4.9 20 4 19.1 4 18V6Z" stroke="#1C1308" stroke-width="2" stroke-linejoin="round"/>
<path d="M9 8.5C9.28 8.5 9.5 8.72 9.5 9C9.5 9.28 9.28 9.5 9 9.5C8.72 9.5 8.5 9.28 8.5 9C8.5 8.72 8.72 8.5 9 8.5Z" fill="#1C1308" stroke="#1C1308" stroke-width="2"/>
<path d="M20 16L16.71 12.71C16.32 12.32 15.69 12.32 15.3 12.71L11.71 16.3C11.32 16.69 10.69 16.69 10.3 16.3L8.71001 14.71C8.32001 14.32 7.69001 14.32 7.30001 14.71L4.01001 18" stroke="#1C1308" stroke-width="2"/>
</svg>
