<svg width="24" height="24" viewBox="0 0 24 24" fill="none" xmlns="http://www.w3.org/2000/svg">
<path d="M3 20H21C21.55 20 22 19.55 22 19V13.21C22 13.07 21.97 12.93 21.91 12.8L18.26 4.59C18.1 4.23 17.74 4 17.35 4H6.65C6.25 4 5.9 4.23 5.74 4.59L2.09 12.81C2.03 12.94 2 13.08 2 13.22V19.01C2 19.56 2.45 20.01 3 20.01V20Z" stroke="#1C1308" stroke-width="2"/>
<path d="M22 13H16.54C16.21 13 15.89 13.17 15.71 13.45L14.3 15.56C14.11 15.84 13.8 16.01 13.47 16.01H10.54C10.21 16.01 9.89 15.84 9.71 15.56L8.3 13.45C8.11 13.17 7.8 13 7.47 13H2" stroke="#1C1308" stroke-width="2"/>
</svg>
