<svg width="24" height="24" viewBox="0 0 24 24" fill="none" xmlns="http://www.w3.org/2000/svg">
<path d="M13 22H11V17H13V22ZM9.17188 16.2422L5.63574 19.7783L4.22168 18.3643L7.75781 14.8281L9.17188 16.2422ZM19.7783 18.3643L18.3643 19.7783L14.8281 16.2422L16.2422 14.8281L19.7783 18.3643ZM7 13H2V11H7V13ZM22 13H17V11H22V13ZM9.17188 7.75781L7.75781 9.17188L4.22168 5.63574L5.63574 4.22168L9.17188 7.75781ZM19.7783 5.63574L16.2422 9.17188L14.8281 7.75781L18.3643 4.22168L19.7783 5.63574ZM13 7H11V2H13V7Z" fill="#1C1308"/>
</svg>
