<svg width="24" height="24" viewBox="0 0 24 24" fill="none" xmlns="http://www.w3.org/2000/svg">
<path d="M14 10V6C14 4.89228 13.1077 4 12 4C10.8923 4 10 4.89228 10 6V10H14ZM7 12C6.44772 12 6 12.4477 6 13V19C6 19.5523 6.44772 20 7 20H17C17.5523 20 18 19.5523 18 19V13C18 12.4477 17.5523 12 17 12H7ZM17 10C18.6569 10 20 11.3431 20 13V19C20 20.6569 18.6569 22 17 22H7C5.34315 22 4 20.6569 4 19V13C4 11.3431 5.34315 10 7 10H8V6C8 3.78772 9.78772 2 12 2C14.2123 2 16 3.78772 16 6V10H17Z" fill="#1C1308"/>
</svg>
