<svg width="24" height="24" viewBox="0 0 24 24" fill="none" xmlns="http://www.w3.org/2000/svg">
<path fill-rule="evenodd" clip-rule="evenodd" d="M15 21.0299H18V18.0299H20V21.0299C19.9999 22.1321 19.1022 23.0299 18 23.0299H15C13.8978 23.0299 13.0001 22.1321 13 21.0299V18.0299H15V21.0299ZM2.8623 2.76918C3.31 2.54534 3.92141 2.50952 4.44434 2.85805C6.45388 4.19773 10.5206 6.02992 14 6.02992H20C21.1023 6.02992 22 6.92764 22 8.02992V14.0299C21.9999 15.1321 21.1022 16.0299 20 16.0299H14C12.4333 16.0299 10.5749 16.4872 8.79883 17.1432C7.03302 17.7954 5.42645 18.6151 4.38477 19.275L4.38184 19.277C3.42818 19.8759 2.00024 19.2587 2 17.9801V4.14028C2 3.47873 2.41158 2.99471 2.8623 2.76918ZM4 17.1745C5.11389 16.5349 6.55785 15.8392 8.10645 15.2672C9.98534 14.5733 12.0967 14.0299 14 14.0299H20V8.02992H15V11.0299H13V7.98891C9.63856 7.72519 6.134 6.21425 4 4.93813V17.1745Z" fill="#1C1308"/>
</svg>
