<svg width="24" height="24" viewBox="0 0 24 24" fill="none" xmlns="http://www.w3.org/2000/svg">
<path d="M11.874 21.905C16.248 21.905 18.597 18.044 18.597 11.591C18.597 5.48901 16.005 2.19501 11.847 2.19501C7.90495 2.19501 5.39395 4.73301 5.39395 8.67501C5.39395 12.374 7.76995 14.831 11.253 14.831C13.521 14.831 15.033 13.94 16.059 12.077C16.005 17.882 14.358 19.745 11.847 19.745C9.92995 19.745 8.49895 18.908 8.12095 16.775L5.82595 17.18C6.36595 20.15 8.52595 21.905 11.874 21.905ZM11.793 12.806C9.25495 12.806 7.90495 10.889 7.90495 8.56701C7.90495 6.27201 9.25495 4.35501 11.793 4.35501C14.331 4.35501 15.681 6.27201 15.681 8.56701C15.681 10.889 14.331 12.806 11.793 12.806Z" fill="black"/>
</svg>
