<svg width="24" height="24" viewBox="0 0 24 24" fill="none" xmlns="http://www.w3.org/2000/svg">
<path d="M14 6H7C6.44772 6 6 6.44772 6 7V17C6 17.5523 6.44772 18 7 18H17C17.5523 18 18 17.5523 18 17V10H20V17C20 18.6569 18.6569 20 17 20H7C5.34315 20 4 18.6569 4 17V7C4 5.34315 5.34315 4 7 4H14V6ZM19 2C20.6573 2 22 3.34272 22 5C22 6.65728 20.6573 8 19 8C17.3427 8 16 6.65728 16 5C16 3.34272 17.3427 2 19 2ZM19 4C18.4473 4 18 4.44728 18 5C18 5.55272 18.4473 6 19 6C19.5527 6 20 5.55272 20 5C20 4.44728 19.5527 4 19 4Z" fill="#1C1308"/>
</svg>
