<svg width="24" height="24" viewBox="0 0 24 24" fill="none" xmlns="http://www.w3.org/2000/svg">
<path d="M19 14C20.6569 14 22 15.3431 22 17V19C22 20.6569 20.6569 22 19 22H17C15.3431 22 14 20.6569 14 19V17C14 15.3431 15.3431 14 17 14H19ZM17 16C16.4477 16 16 16.4477 16 17V19C16 19.5523 16.4477 20 17 20H19C19.5523 20 20 19.5523 20 19V17C20 16.4477 19.5523 16 19 16H17ZM19.707 5.70703L5.70703 19.707L4.29297 18.293L18.293 4.29297L19.707 5.70703ZM7 2C8.65685 2 10 3.34315 10 5V7C10 8.65685 8.65685 10 7 10H5C3.34315 10 2 8.65685 2 7V5C2 3.34315 3.34315 2 5 2H7ZM5 4C4.44772 4 4 4.44772 4 5V7C4 7.55228 4.44772 8 5 8H7C7.55228 8 8 7.55228 8 7V5C8 4.44772 7.55228 4 7 4H5Z" fill="#1C1308"/>
</svg>
