<svg width="24" height="24" viewBox="0 0 24 24" fill="none" xmlns="http://www.w3.org/2000/svg">
<path d="M8.44434 4.83594C5.81143 6.14372 4.00017 8.86486 4 12C4.00023 16.4175 7.58243 20 12 20C15.1353 20 17.8562 18.1887 19.1641 15.5557L20.0596 16L20.9561 16.4453C19.3237 19.7318 15.9244 22 12 22C6.47786 22 2.00023 17.5221 2 12C2.00017 8.07576 4.26917 4.67714 7.55566 3.04492L8.44434 4.83594ZM13.4297 1.0127C18.7604 1.28318 22.9999 5.69192 23 11.0898C23 12.1421 22.1421 13 21.0898 13H13C11.8977 13 11 12.1023 11 11V2.91016C11 1.85787 11.8579 1 12.9102 1L13.4297 1.0127ZM13 11H20.998C20.9501 6.60371 17.3963 3.04989 13 3.00195V11Z" fill="#1C1308"/>
</svg>
