<svg width="24" height="24" viewBox="0 0 24 24" fill="none" xmlns="http://www.w3.org/2000/svg">
<path d="M12 2C17.5228 2 22 6.47715 22 12C22 17.5228 17.5228 22 12 22C6.47715 22 2 17.5228 2 12C2 6.47715 6.47715 2 12 2ZM12 4C7.58172 4 4 7.58172 4 12C4 16.4183 7.58172 20 12 20C16.4183 20 20 16.4183 20 12C20 7.58172 16.4183 4 12 4ZM13 18H11V16H13V18ZM12 6C14.2091 6 16 7.79086 16 10C16 11.7522 14.8735 13.2385 13.3086 13.7803C13.1857 13.8229 13.0902 13.8905 13.0371 13.9492C13.0134 13.9755 13.0043 13.9926 13.001 14.001L13 15H11V14C11 12.8477 11.9234 12.1438 12.6543 11.8906C13.4387 11.6191 14 10.8738 14 10C14 8.89543 13.1046 8 12 8C10.8954 8 10 8.89543 10 10H8C8 7.79086 9.79086 6 12 6Z" fill="#1C1308"/>
</svg>
