<svg width="24" height="24" viewBox="0 0 24 24" fill="none" xmlns="http://www.w3.org/2000/svg">
<g clip-path="url(#clip0_6_1107)">
<path d="M10.0034 4.83203C8.5721 5.78623 7.62435 6.6664 6.99847 7.94043C6.35981 9.24075 6.00142 11.0634 6.0014 14V17.2109L7.92035 15.293L9.33441 16.707L6.41449 19.627C5.63506 20.4064 4.36482 20.4064 3.58539 19.627L0.665466 16.707L2.07953 15.293L4.00238 17.2148V14C4.00239 10.937 4.36796 8.75912 5.20258 7.05957C6.05007 5.33407 7.32573 4.21351 8.89398 3.16797L10.0034 4.83203ZM24.0004 19H12.0004V17H24.0004V19ZM24.0004 13H12.0004V11H24.0004V13ZM24.0004 7H12.0004V5H24.0004V7Z" fill="#1C1308"/>
</g>
<defs>
<clipPath id="clip0_6_1107">
<rect width="24" height="24" fill="white"/>
</clipPath>
</defs>
</svg>
