<svg width="24" height="24" viewBox="0 0 24 24" fill="none" xmlns="http://www.w3.org/2000/svg">
<path d="M22 22.8682L20.4453 21.832L18 20.2012L15.5547 21.832L15 22.2021L14.4453 21.832L12 20.2012L9.55469 21.832L9 22.2021L8.44531 21.832L6 20.2012L3.55469 21.832L2 22.8682V2H22V22.8682ZM4 19.1309L5.44531 18.168L6 17.7979L6.55469 18.168L9 19.7979L11.4453 18.168L12 17.7979L12.5547 18.168L15 19.7979L17.4453 18.168L18 17.7979L18.5547 18.168L20 19.1309V4H4V19.1309ZM12 12H6V10H12V12ZM18 8H6V6H18V8Z" fill="#1C1308"/>
</svg>
