<svg width="24" height="24" viewBox="0 0 24 24" fill="none" xmlns="http://www.w3.org/2000/svg">
<path d="M15.3564 5.6416L15.3652 5.65137L15.375 5.66113C15.9218 6.23675 15.9472 7.17635 15.3574 7.7666L11.707 11.417L10.293 10.0029L12.585 7.70996H12C8.68324 7.70996 6.00004 10.4013 6 13.71C6 17.0186 8.68321 19.71 12 19.71C15.3177 19.71 18 17.0277 18 13.71C18 12.0292 17.3644 10.4884 16.293 9.41699L17.707 8.00293C19.1756 9.47145 20 11.5307 20 13.71C20 18.1322 16.4223 21.71 12 21.71C7.57679 21.71 4 18.1213 4 13.71C4.00004 9.29864 7.57681 5.70996 12 5.70996H12.5918L10.2939 3.41797L11.7061 2.00195L15.3564 5.6416Z" fill="#1C1308"/>
</svg>
