<svg width="24" height="24" viewBox="0 0 24 24" fill="none" xmlns="http://www.w3.org/2000/svg">
<path d="M22 12C22 14.553 21.0224 17.1204 19.0664 19.0664C15.1735 22.9592 8.86083 22.966 4.94922 19.0918L4 18.2432V22H2V17C2 15.8977 2.89772 15 4 15H9V17H5.60938L6.29688 17.6143L6.31738 17.6328L6.33594 17.6523C9.46617 20.7735 14.5344 20.7721 17.6533 17.6533L17.6553 17.6514C19.2179 16.0976 20 14.0461 20 12H22ZM22 7C22 8.10228 21.1023 9 20 9H15V7H18.3906L17.7031 6.38574L17.6836 6.36816L17.6641 6.34863C14.5338 3.22726 9.4656 3.22874 6.34668 6.34766L6.34473 6.34961C4.78243 7.90326 4.00008 9.95416 4 12H2C2.00008 9.44648 2.97768 6.87772 4.93457 4.93164C8.82284 1.04512 15.1239 1.03514 19.0361 4.89453L20 5.75586V2H22V7Z" fill="#1C1308"/>
</svg>
