<svg width="65" height="65" viewBox="0 0 65 65" fill="none" xmlns="http://www.w3.org/2000/svg">
<path d="M27.5274 5.36775C29.5752 1.7765 34.7656 1.77651 36.8135 5.36775L61.6465 48.2476L61.6475 48.2496C63.7526 51.871 61.0834 56.2981 56.9981 56.2984H7.34377C3.20784 56.2984 0.657723 51.8413 2.67971 48.274L2.69241 48.2525L27.5274 5.36775ZM7.34182 50.9224C7.34044 50.925 7.33974 50.9274 7.33889 50.9293C7.33963 50.9311 7.34035 50.9335 7.34182 50.9361H57.0069L32.1709 8.04939L7.34182 50.9224ZM34.8653 45.5748H29.503V40.2125H34.8653V45.5748ZM34.8653 34.8512H29.503V21.4469H34.8653V34.8512Z" fill="#E3232F"/>
</svg>
