<svg width="24" height="24" viewBox="0 0 24 24" fill="none" xmlns="http://www.w3.org/2000/svg">
<path d="M14.8775 3.9175C16.2861 3.11258 17.9992 2.6625 19.9332 3.30715L20.0416 3.35012C20.2879 3.46567 20.4788 3.67767 20.566 3.93899C21.2106 5.87293 20.7596 7.58604 19.9546 8.99465C19.256 10.2171 18.2577 11.2629 17.4351 12.0904V18.0445C17.435 18.3095 17.3296 18.564 17.1421 18.7515L15.021 20.8726C14.8199 21.0737 14.5423 21.1793 14.2584 21.1636C13.9745 21.1479 13.7104 21.0125 13.5328 20.7905L10.7378 17.2964L6.57671 13.1353L3.08257 10.3394C2.86051 10.1617 2.72427 9.89776 2.70855 9.61379C2.69292 9.33007 2.79875 9.0531 2.99956 8.85207L5.12163 6.73C5.30913 6.54269 5.56362 6.43801 5.82866 6.43801H11.7808C12.6084 5.61527 13.6546 4.61642 14.8775 3.9175ZM10.7789 18.7515L8.65679 20.8726L7.24273 19.4585L9.36382 17.3374L10.7789 18.7515ZM8.65679 16.6294L5.12163 20.1655L3.70757 18.7515L7.24273 15.2154L8.65679 16.6294ZM12.8257 16.7036L14.397 18.6675L15.4351 17.6294V14.0943L12.8257 16.7036ZM6.53569 14.5083L4.4146 16.6294L3.00054 15.2154L5.12163 13.0943L6.53569 14.5083ZM18.8003 5.07277C17.7513 4.86574 16.7923 5.12727 15.8707 5.65383C14.7688 6.28349 13.7999 7.24506 12.9 8.14504H12.899L8.65679 12.3872L11.4849 15.2154L15.7281 10.9732C16.6281 10.0732 17.5887 9.10336 18.2183 8.00149C18.7448 7.07999 19.0072 6.12169 18.8003 5.07277ZM5.20464 9.47512L7.16851 11.0474L9.77788 8.43703H6.24273L5.20464 9.47512Z" fill="#1C1308"/>
</svg>
