<svg width="24" height="24" viewBox="0 0 24 24" fill="none" xmlns="http://www.w3.org/2000/svg">
<path d="M18 13C19.6523 13 21 14.3477 21 16V18C21 19.6523 19.6523 21 18 21H6C4.34772 21 3 19.6523 3 18V16C3 14.3477 4.34772 13 6 13H18ZM6 15C5.45228 15 5 15.4523 5 16V18C5 18.5477 5.45228 19 6 19H18C18.5477 19 19 18.5477 19 18V16C19 15.4523 18.5477 15 18 15H6ZM18 3C19.6523 3 21 4.34772 21 6V8C21 9.65228 19.6523 11 18 11H6C4.34772 11 3 9.65228 3 8V6C3 4.34772 4.34772 3 6 3H18ZM6 5C5.45228 5 5 5.45228 5 6V8C5 8.54772 5.45228 9 6 9H18C18.5477 9 19 8.54772 19 8V6C19 5.45228 18.5477 5 18 5H6Z" fill="#1C1308"/>
</svg>
