<svg width="24" height="24" viewBox="0 0 24 24" fill="none" xmlns="http://www.w3.org/2000/svg">
<path d="M22 11.47V12.53C22 12.96 21.72 13.34 21.32 13.48L19.18 14.19C19.04 14.65 18.85 15.1 18.63 15.52L19.64 17.54C19.83 17.92 19.76 18.39 19.45 18.69L18.7 19.44C18.4 19.74 17.93 19.82 17.55 19.63L15.53 18.62C15.11 18.84 14.66 19.03 14.2 19.17L13.49 21.31C13.35 21.72 12.97 21.99 12.54 21.99H11.48C11.05 21.99 10.67 21.72 10.53 21.31L9.82002 19.17C9.35002 19.03 8.91002 18.84 8.49002 18.62L6.47002 19.63C6.09002 19.82 5.62002 19.75 5.32002 19.44L4.57002 18.69C4.27002 18.39 4.19002 17.92 4.38002 17.54L5.39002 15.52C5.17002 15.1 4.98002 14.65 4.84002 14.19L2.70002 13.48C2.29002 13.34 2.02002 12.96 2.02002 12.53V11.47C2.02002 11.04 2.30002 10.66 2.70002 10.52L4.84002 9.81001C4.99002 9.35001 5.17002 8.90001 5.40002 8.48001L4.39002 6.46001C4.20002 6.07001 4.27002 5.61001 4.58002 5.31001L5.33002 4.56001C5.63002 4.26001 6.10002 4.18001 6.48002 4.37001L8.50002 5.38001C8.92002 5.16001 9.37002 4.97001 9.83002 4.83001L10.54 2.69001C10.68 2.28001 11.06 2.01001 11.49 2.01001H12.55C12.98 2.01001 13.36 2.29001 13.5 2.69001L14.21 4.83001C14.68 4.98001 15.12 5.16001 15.54 5.38001L17.56 4.37001C17.94 4.18001 18.41 4.25001 18.71 4.56001L19.46 5.31001C19.76 5.61001 19.84 6.08001 19.65 6.46001L18.64 8.48001C18.86 8.90001 19.05 9.35001 19.19 9.81001L21.33 10.52C21.74 10.66 22.01 11.04 22.01 11.47H22Z" stroke="#1C1308" stroke-width="2"/>
<path d="M12 15C13.66 15 15 13.66 15 12C15 10.34 13.66 9 12 9C10.34 9 9 10.34 9 12C9 13.66 10.34 15 12 15Z" stroke="#1C1308" stroke-width="2"/>
</svg>
