<svg width="24" height="24" viewBox="0 0 24 24" fill="none" xmlns="http://www.w3.org/2000/svg">
<path d="M13.4473 9.39453L9.91113 11.1621C9.96871 11.4324 10 11.7125 10 12C10 12.2871 9.96858 12.5669 9.91113 12.8369L14.9834 15.373C15.7166 14.5317 16.7959 14 18 14C20.2098 14 22 15.7902 22 18C22 20.2098 20.2098 22 18 22C15.7902 22 14 20.2098 14 18C14 17.7126 14.0303 17.4323 14.0879 17.1621L9.01562 14.626C8.28242 15.4673 7.20413 16 6 16C3.79022 16 2 14.2098 2 12C2 9.79022 3.79022 8 6 8C7.20387 8 8.28243 8.53201 9.01562 9.37305L12.5527 7.60547L13.4473 9.39453ZM18 16C16.8948 16 16 16.8948 16 18C16 19.1052 16.8948 20 18 20C19.1052 20 20 19.1052 20 18C20 16.8948 19.1052 16 18 16ZM6 10C4.89478 10 4 10.8948 4 12C4 13.1052 4.89478 14 6 14C7.10522 14 8 13.1052 8 12C8 10.8948 7.10522 10 6 10ZM18 2C20.2098 2 22 3.79022 22 6C22 8.20978 20.2098 10 18 10C15.7902 10 14 8.20978 14 6C14 3.79022 15.7902 2 18 2ZM18 4C16.8948 4 16 4.89478 16 6C16 7.10522 16.8948 8 18 8C19.1052 8 20 7.10522 20 6C20 4.89478 19.1052 4 18 4Z" fill="#1C1308"/>
</svg>
