<svg width="24" height="24" viewBox="0 0 24 24" fill="none" xmlns="http://www.w3.org/2000/svg">
<path d="M12 4C18.9842 4.00001 22.2151 9.1118 22.9619 11.7256L23.04 12L22.9619 12.2744C22.2151 14.8882 18.9842 20 12 20C5.01575 20 1.78489 14.8882 1.03809 12.2744L0.959961 12L1.03809 11.7256C1.78489 9.11179 5.01575 4 12 4ZM12 6C6.43313 6 3.78016 9.86849 3.04883 12C3.78016 14.1315 6.43313 18 12 18C17.5666 18 20.2187 14.1316 20.9502 12C20.2187 9.86843 17.5666 6.00001 12 6ZM9.35449 9L10.0156 9.75C9.39132 10.3012 9 11.1043 9 12C9 13.6569 10.3431 15 12 15C12.7615 15 13.4549 14.7173 13.9844 14.25L14.6455 15L15.3076 15.75C14.4268 16.5274 13.2673 17 12 17C9.23858 17 7 14.7614 7 12C7 10.5065 7.65601 9.16472 8.69238 8.25L9.35449 9ZM12 7C14.7614 7.00001 17 9.23858 17 12H15C15 10.3432 13.6568 9.00001 12 9V7Z" fill="#1C1308"/>
</svg>
