<svg width="24" height="24" viewBox="0 0 24 24" fill="none" xmlns="http://www.w3.org/2000/svg">
<path d="M12.1578 21.905C16.0998 21.905 18.6108 19.367 18.6108 15.425C18.6108 11.726 16.3698 9.29601 12.7788 9.29601C10.6728 9.29601 8.94478 10.268 7.91878 12.266C7.97278 6.27201 9.83578 4.35501 12.3738 4.35501C14.2908 4.35501 15.4248 5.32701 15.8298 7.32501L18.1788 6.89301C17.8008 4.32801 16.0188 2.19501 12.5088 2.19501C8.13478 2.19501 5.38078 6.02901 5.38078 12.509C5.38078 18.584 7.99978 21.905 12.1578 21.905ZM12.2118 19.745C9.67378 19.745 8.32378 17.882 8.32378 15.533C8.32378 13.184 9.67378 11.321 12.2118 11.321C14.7498 11.321 16.0998 13.184 16.0998 15.533C16.0998 17.882 14.7498 19.745 12.2118 19.745Z" fill="black"/>
</svg>
