<svg width="24" height="24" viewBox="0 0 24 24" fill="none" xmlns="http://www.w3.org/2000/svg">
<path fill-rule="evenodd" clip-rule="evenodd" d="M21.4469 17.3945L13.3414 21.4473C12.4969 21.8695 11.5024 21.8695 10.6579 21.4473L2.55239 17.3945L3.44692 15.6055L11.5524 19.6582C11.8339 19.7989 12.1654 19.7989 12.4469 19.6582L20.5524 15.6055L21.4469 17.3945ZM21.4469 13.3945L13.3414 17.4473C12.4969 17.8695 11.5024 17.8695 10.6579 17.4473L2.55239 13.3945L3.44692 11.6055L11.5524 15.6582C11.8339 15.7989 12.1654 15.7989 12.4469 15.6582L20.5524 11.6055L21.4469 13.3945ZM10.6579 2.55272C11.5023 2.13049 12.4969 2.13059 13.3414 2.55272L20.6579 6.21093C22.132 6.94798 22.1319 9.05201 20.6579 9.78905L13.3414 13.4473C12.4969 13.8695 11.5024 13.8695 10.6579 13.4473L3.34145 9.78905C1.86769 9.05188 1.86756 6.94797 3.34145 6.21093L10.6579 2.55272ZM12.4469 4.34179C12.1655 4.20118 11.8338 4.20108 11.5524 4.34179L4.23598 7.99999L11.5524 11.6582C11.8339 11.7989 12.1654 11.7989 12.4469 11.6582L19.7633 7.99999L12.4469 4.34179Z" fill="#1C1308"/>
</svg>
