<svg width="24" height="24" viewBox="0 0 24 24" fill="none" xmlns="http://www.w3.org/2000/svg">
<path d="M11.0697 3.35871C11.4027 2.51457 12.5973 2.51457 12.9303 3.35872L14.9519 8.4847C15.0536 8.74243 15.2576 8.94643 15.5153 9.04808L20.6413 11.0697C21.4854 11.4027 21.4854 12.5973 20.6413 12.9303L15.5153 14.9519C15.2576 15.0536 15.0536 15.2576 14.9519 15.5153L12.9303 20.6413C12.5973 21.4854 11.4027 21.4854 11.0697 20.6413L9.04808 15.5153C8.94643 15.2576 8.74243 15.0536 8.4847 14.9519L3.35871 12.9303C2.51457 12.5973 2.51457 11.4027 3.35872 11.0697L8.4847 9.04808C8.74243 8.94643 8.94643 8.74243 9.04808 8.4847L11.0697 3.35871Z" stroke="#1C1308" stroke-width="2"/>
</svg>
