<svg width="24" height="24" viewBox="0 0 24 24" fill="none" xmlns="http://www.w3.org/2000/svg">
<path d="M18.0095 3C19.6617 3 21.0095 4.34772 21.0095 6V10.4141L9.11688 22.3066L8.40985 23.0146L7.70282 22.3066L0.995789 15.5996L13.5954 3H18.0095ZM3.82391 15.5996L8.40985 20.1855L19.0095 9.58594V6C19.0095 5.45228 18.5572 5 18.0095 5H14.4235L3.82391 15.5996ZM16.0104 7C16.5625 7.00023 17.0104 7.44786 17.0104 8C17.0104 8.55214 16.5625 8.99977 16.0104 9C15.4582 9 15.0104 8.55228 15.0104 8C15.0104 7.44772 15.4582 7 16.0104 7Z" fill="#1C1308"/>
</svg>
