<svg width="24" height="24" viewBox="0 0 24 24" fill="none" xmlns="http://www.w3.org/2000/svg">
<path d="M11.9638 21.905C15.8518 21.905 18.4438 19.691 18.4438 16.073C18.4438 13.859 17.0398 12.023 14.9608 11.51C17.0398 10.835 18.1738 9.10701 18.1468 7.02801C18.1198 4.13901 16.0408 2.19501 12.2878 2.19501C8.83182 2.19501 6.45582 3.78801 5.67282 7.40601L8.02182 7.83801C8.53482 5.32701 10.0198 4.32801 12.2068 4.32801C14.3668 4.32801 15.7168 5.43501 15.7168 7.35201C15.7168 9.24201 14.4208 10.484 12.4768 10.484H10.4518V12.644H12.4768C14.4748 12.644 15.9328 14.075 15.9328 16.1C15.9328 18.719 14.1508 19.745 11.9638 19.745C9.50682 19.745 7.83282 18.584 7.64382 15.722L5.29482 16.154C5.53782 19.88 7.96782 21.905 11.9638 21.905Z" fill="black"/>
</svg>
