<svg width="24" height="24" viewBox="0 0 24 24" fill="none" xmlns="http://www.w3.org/2000/svg">
<path d="M12 2C14.2123 2 16 3.78772 16 6V8H19C20.6523 8 22 9.34772 22 11V18C22 20.2023 20.2023 22 18 22H4.59961C2.97086 21.9998 2 20.4324 2 19V13C2 11.5676 2.97086 10.0003 4.59961 10H7.38184L11.1055 2.55273L11.1768 2.43164C11.3617 2.16367 11.6685 2 12 2ZM4.59961 12C4.52028 12.0001 4.38955 12.0388 4.25098 12.2119C4.11131 12.3865 4 12.6631 4 13V19C4 19.3369 4.11131 19.6135 4.25098 19.7881C4.38955 19.9612 4.52028 19.9999 4.59961 20H7V12H4.59961ZM9 11.2363V20H18C19.0977 20 20 19.0977 20 18V11C20 10.4523 19.5477 10 19 10H15C14.4477 10 14 9.55228 14 9V6C14 5.09244 13.4009 4.33007 12.5752 4.08398L9 11.2363Z" fill="#1C1308"/>
</svg>
