<svg width="24" height="24" viewBox="0 0 24 24" fill="none" xmlns="http://www.w3.org/2000/svg">
<path d="M13 20C13 21.6569 11.6569 23 10 23C8.34315 23 7 21.6569 7 20V19H9V20C9 20.5523 9.44772 21 10 21C10.5523 21 11 20.5523 11 20V16.5H13V20ZM12 2C17.5228 2 22 6.47715 22 12C22 12.7623 21.9143 13.5063 21.752 14.2217L21.5752 15H2.4248L2.24805 14.2217C2.08573 13.5063 2 12.7623 2 12C2 6.47715 6.47715 2 12 2ZM12 4C7.58172 4 4 7.58172 4 12C4 12.3391 4.02367 12.6726 4.06445 13H19.9355C19.9763 12.6726 20 12.3391 20 12C20 7.58172 16.4183 4 12 4Z" fill="#1C1308"/>
</svg>
