<svg width="24" height="24" viewBox="0 0 24 24" fill="none" xmlns="http://www.w3.org/2000/svg">
<path d="M13 14C14.6523 14 16 15.3477 16 17V22H14V17C14 16.4523 13.5477 16 13 16H5C4.45228 16 4 16.4523 4 17V22H2V17C2 15.3477 3.34772 14 5 14H13ZM20 9H22V11H20V13H18V11H16V9H18V7H20V9ZM9 2C11.7614 2 14 4.23858 14 7C14 9.76142 11.7614 12 9 12C6.23858 12 4 9.76142 4 7C4 4.23858 6.23858 2 9 2ZM9 4C7.34315 4 6 5.34315 6 7C6 8.65685 7.34315 10 9 10C10.6569 10 12 8.65685 12 7C12 5.34315 10.6569 4 9 4Z" fill="#1C1308"/>
</svg>
