<svg width="24" height="24" viewBox="0 0 24 24" fill="none" xmlns="http://www.w3.org/2000/svg">
<path d="M12 12C13.6575 12 15 10.6575 15 9C15 7.3425 13.6575 6 12 6C10.3425 6 9 7.3425 9 9C9 10.6575 10.3425 12 12 12Z" stroke="#1C1308" stroke-width="2"/>
<path d="M7 21V17C7 15.9 7.9 15 9 15H15C16.1 15 17 15.9 17 17V21" stroke="#1C1308" stroke-width="2"/>
<path d="M19 3H5C3.89543 3 3 3.89543 3 5V19C3 20.1046 3.89543 21 5 21H19C20.1046 21 21 20.1046 21 19V5C21 3.89543 20.1046 3 19 3Z" stroke="#1C1308" stroke-width="2" stroke-miterlimit="10"/>
</svg>
