<svg width="24" height="24" viewBox="0 0 24 24" fill="none" xmlns="http://www.w3.org/2000/svg">
<path d="M11 14C12.6523 14 14 15.3477 14 17V21H12V17C12 16.4523 11.5477 16 11 16H5C4.45228 16 4 16.4523 4 17V21H2V17C2 15.3477 3.34772 14 5 14H11ZM19 14C20.6523 14 22 15.3477 22 17V21H20V17C20 16.4523 19.5477 16 19 16H16V14H19ZM8 2C10.7623 2 13 4.23772 13 7C13 9.76228 10.7623 12 8 12C5.23772 12 3 9.76228 3 7C3 4.23772 5.23772 2 8 2ZM16 2C18.7623 2 21 4.23772 21 7C21 9.76228 18.7623 12 16 12C15.0931 12 14.2367 11.763 13.4902 11.3203L14.5098 9.59961C14.9432 9.85676 15.4471 10 16 10C17.6577 10 19 8.65772 19 7C19 5.34228 17.6577 4 16 4C15.4562 4 14.9469 4.14815 14.499 4.40625L13.501 2.67383C14.2331 2.25196 15.0839 2 16 2ZM8 4C6.34228 4 5 5.34228 5 7C5 8.65772 6.34228 10 8 10C9.65772 10 11 8.65772 11 7C11 5.34228 9.65772 4 8 4Z" fill="#1C1308"/>
</svg>
