<svg width="24" height="24" viewBox="0 0 24 24" fill="none" xmlns="http://www.w3.org/2000/svg">
<path d="M13 14C14.6523 14 16 15.3477 16 17V22H14V17C14 16.4523 13.5477 16 13 16H5C4.45228 16 4 16.4523 4 17V22H2V17C2 15.3477 3.34772 14 5 14H13ZM23.6689 8.74316L19.459 12.5332L19.4482 12.543C19.3096 12.6642 19.0944 12.8219 18.8066 12.9082L18.8057 12.9053C18.5634 12.9863 18.3417 13 18.2002 13C17.9106 13 17.6477 12.922 17.4326 12.8145C17.2939 12.7451 17.0757 12.6198 16.8896 12.4033L15.2783 10.6719L16.7412 9.30859L18.25 10.9297L22.3311 7.25684L23.6689 8.74316ZM9 2C11.7623 2 14 4.23772 14 7C14 9.76228 11.7623 12 9 12C6.23772 12 4 9.76228 4 7C4 4.23772 6.23772 2 9 2ZM9 4C7.34228 4 6 5.34228 6 7C6 8.65772 7.34228 10 9 10C10.6577 10 12 8.65772 12 7C12 5.34228 10.6577 4 9 4Z" fill="#1C1308"/>
</svg>
